<?xml version="1.0" encoding="UTF-8"?>
<svg version="1.1" xmlns="http://www.w3.org/2000/svg" width="512" height="512">
<path d="M0 0 C5.98560669 5.12899034 5.98560669 5.12899034 6.421875 9.10546875 C6.44636719 9.95625 6.47085938 10.80703125 6.49609375 11.68359375 C6.53347656 12.5240625 6.57085938 13.36453125 6.609375 14.23046875 C5.9156828 18.63445958 3.93418557 21.59953918 0.37670898 24.31054688 C-1.79742583 25.71557025 -4.00688357 27.02350088 -6.25390625 28.30859375 C-7.75293625 29.19084224 -9.25162513 30.07367057 -10.75 30.95703125 C-11.54801025 31.42197998 -12.34602051 31.88692871 -13.16821289 32.3659668 C-16.18886355 34.15407391 -19.16983894 36.00056008 -22.15234375 37.8515625 C-41.65940146 49.88074949 -62.09811417 60.22384576 -82.56640625 70.49609375 C-83.64562347 71.04024933 -84.7248407 71.58440491 -85.83676147 72.14505005 C-96.43845738 77.48324503 -107.01392921 82.74365887 -118.01953125 87.203125 C-118.78593933 87.52070267 -119.55234741 87.83828033 -120.34197998 88.16548157 C-123.78721913 89.59217765 -127.22945974 90.95824079 -130.74511719 92.20141602 C-138.81662304 95.47633027 -141.91858719 98.86099799 -145.63937378 106.53614807 C-146.06419033 107.37767034 -146.48900688 108.21919261 -146.92669666 109.08621556 C-148.23903171 111.694474 -149.52824933 114.31332783 -150.81640625 116.93359375 C-151.5854702 118.46784254 -152.35615726 120.00127908 -153.12866592 121.53379631 C-155.47159768 126.19443225 -157.77976381 130.87187314 -160.08642578 135.55053711 C-160.96133718 137.32036038 -161.83652908 139.090045 -162.7119751 140.85960388 C-164.57442675 144.62447927 -166.43588223 148.38984491 -168.29681778 152.15546989 C-171.24242153 158.11346083 -174.19628816 164.06733075 -177.15231323 170.02015686 C-177.65392601 171.03032535 -178.15553879 172.04049384 -178.67235196 173.0812735 C-180.73398687 177.23269599 -182.79588667 181.38398688 -184.85789323 185.5352248 C-190.68839815 197.27411647 -196.51073907 209.01690638 -202.31005859 220.77124023 C-206.9412457 230.15780624 -211.58929929 239.5357959 -216.25743568 248.90404421 C-218.72048489 253.84861486 -221.17479186 258.79710235 -223.60858536 263.75614738 C-225.89121185 268.40672523 -228.19602255 273.04560285 -230.51834869 277.67647743 C-231.36521063 279.37509543 -232.20385814 281.07783782 -233.03355789 282.78490448 C-234.16871715 285.11731077 -235.33270135 287.43297933 -236.50491333 289.74693298 C-236.82497475 290.42269204 -237.14503617 291.09845109 -237.47479641 291.79468769 C-240.15607533 296.96418797 -243.49110081 298.82277512 -248.81640625 300.93359375 C-249.86296387 301.38637695 -250.90952148 301.83916016 -251.98779297 302.30566406 C-253.47690186 302.90266113 -253.47690186 302.90266113 -254.99609375 303.51171875 C-256.63578125 304.16914062 -256.63578125 304.16914062 -258.30859375 304.83984375 C-259.42492187 305.28328125 -260.54125 305.72671875 -261.69140625 306.18359375 C-262.8309375 306.6425 -263.97046875 307.10140625 -265.14453125 307.57421875 C-266.22992188 308.00734375 -267.3153125 308.44046875 -268.43359375 308.88671875 C-269.41956543 309.28020508 -270.40553711 309.67369141 -271.42138672 310.07910156 C-273.81640625 310.93359375 -273.81640625 310.93359375 -275.81640625 310.93359375 C-275.17881527 302.44838254 -273.68560666 294.15855598 -272.13256836 285.80102539 C-271.85620761 284.29711307 -271.5802117 282.79313366 -271.30455017 281.28909302 C-270.71376651 278.06996438 -270.12047682 274.85131175 -269.52519035 271.63301277 C-268.58415922 266.54521161 -267.64904841 261.4563331 -266.71473694 256.36729431 C-264.90116725 246.49364935 -263.08152401 236.62112846 -261.26132965 226.748703 C-258.94011789 214.15687347 -256.62202143 201.56447196 -254.30865866 188.97119802 C-253.37878576 183.91032504 -252.44612347 178.84997637 -251.5112704 173.79002106 C-250.93166612 170.65011468 -250.35422517 167.50981325 -249.77735329 164.36940384 C-249.50899753 162.91111743 -249.23971827 161.45300063 -248.96945953 159.99506569 C-248.60142302 158.00900669 -248.23694598 156.02228906 -247.87266541 154.03553772 C-247.6674826 152.92301667 -247.46229979 151.81049562 -247.25089931 150.66426182 C-246.73783663 147.90064209 -246.73783663 147.90064209 -246.81640625 144.93359375 C-247.73526611 145.41602539 -248.65412598 145.89845703 -249.60083008 146.39550781 C-292.28005719 168.76081722 -336.79580778 190.282819 -384.81640625 197.93359375 C-385.53940918 198.04928711 -386.26241211 198.16498047 -387.00732422 198.28417969 C-410.5862585 201.89522302 -437.47014173 202.0836313 -457.81640625 187.93359375 C-464.29615091 182.84124445 -467.76142335 176.11441318 -471.43884277 168.89990234 C-473.16088138 165.52250092 -474.92597449 162.16757266 -476.68359375 158.80859375 C-477.03450073 158.13489746 -477.38540771 157.46120117 -477.74694824 156.76708984 C-480.88957622 150.74734627 -484.19604785 144.82875817 -487.56640625 138.93359375 C-488.60691964 137.09904273 -489.64728555 135.26440804 -490.6875 133.4296875 C-492.29670497 130.59689584 -493.91188814 127.76803589 -495.53955078 124.94580078 C-497.25168119 121.9711952 -498.94178533 118.98493736 -500.62890625 115.99609375 C-501.15129883 115.10212891 -501.67369141 114.20816406 -502.21191406 113.28710938 C-505.23765319 107.87739224 -506.68826146 104.15237345 -505.81640625 97.93359375 C-504.1265045 95.15361885 -501.52892877 93.68543121 -498.81640625 91.93359375 C-497.97078125 91.3715625 -497.12515625 90.80953125 -496.25390625 90.23046875 C-490.26118032 86.58716378 -484.85061329 84.29476185 -477.81640625 85.93359375 C-471.53674462 88.44840579 -466.29613785 92.30820658 -460.94140625 96.37109375 C-459.26488296 97.6244474 -457.58778528 98.87703304 -455.91015625 100.12890625 C-455.06453125 100.7621582 -454.21890625 101.39541016 -453.34765625 102.04785156 C-447.24201905 106.59645705 -441.05409225 111.03188352 -434.86181641 115.46142578 C-432.9129441 116.86411139 -430.97888631 118.28516141 -429.046875 119.7109375 C-427.90794881 120.53570436 -426.76865141 121.35995898 -425.62890625 122.18359375 C-424.66597656 122.89 -423.70304687 123.59640625 -422.7109375 124.32421875 C-419.21814817 126.26622847 -416.81075579 126.70163385 -412.81640625 126.93359375 C-410.1414273 126.10151546 -407.88592803 125.24331511 -405.3828125 124.05859375 C-404.33012177 123.58521828 -404.33012177 123.58521828 -403.25616455 123.10227966 C-400.95581408 122.0625776 -398.66766898 120.99853239 -396.37890625 119.93359375 C-394.76257479 119.19665448 -393.14562152 118.46107766 -391.52807617 117.72680664 C-386.61234156 115.48768519 -381.71267119 113.21491781 -376.81640625 110.93359375 C-376.09428955 110.59769226 -375.37217285 110.26179077 -374.62817383 109.91571045 C-368.63923297 107.1290488 -362.65647541 104.32941336 -356.68310547 101.50952148 C-347.32516809 97.09281144 -337.92952137 92.76639695 -328.50390625 88.49609375 C-327.82445953 88.18823944 -327.14501282 87.88038513 -326.44497681 87.5632019 C-323.6796984 86.31046701 -320.91435393 85.05787828 -318.14881897 83.80570984 C-310.19509004 80.20265055 -302.25601163 76.56763925 -294.31640625 72.93359375 C-282.3105372 67.43986079 -270.29614244 61.9652817 -258.27441406 56.50634766 C-247.61420135 51.66519516 -236.9629141 46.80480665 -226.31640625 41.93359375 C-214.31100895 36.44063333 -202.29767991 30.9655274 -190.27642822 25.50735474 C-181.05252028 21.31896866 -171.83518903 17.11652873 -162.62426758 12.8996582 C-159.68478291 11.55402637 -156.74452502 10.21010904 -153.8034668 8.86791992 C-153.08312759 8.53916367 -152.36278839 8.21040741 -151.62062073 7.87168884 C-150.17308061 7.21105022 -148.72552006 6.55045639 -147.27793884 5.88990784 C-142.977188 3.92576412 -138.68227361 1.9494741 -134.39154053 -0.03645325 C-131.62839653 -1.31343335 -128.86170097 -2.58258887 -126.09429932 -3.85031128 C-124.81726415 -4.43743177 -123.54173693 -5.02784734 -122.26800537 -5.62210083 C-110.10175526 -11.2951692 -97.43606822 -16.065333 -84.06640625 -17.87890625 C-83.2369751 -17.99508301 -82.40754395 -18.11125977 -81.55297852 -18.23095703 C-53.28871974 -21.84618388 -23.37926543 -17.15344163 0 0 Z M-104.81640625 5.93359375 C-100.15279011 12.41635094 -93.78196066 15.6347999 -86.11328125 17.640625 C-69.00722491 19.97094106 -52.88872707 11.59156419 -38.81640625 2.93359375 C-44.99078579 -3.24078579 -57.39751276 -2.43350682 -65.56640625 -2.50390625 C-79.48471061 -2.44992586 -92.12010364 0.06896257 -104.81640625 5.93359375 Z " fill="#000000" transform="translate(505.81640625,110.06640625)"/>
<path d="M0 0 C1.29906372 0.38495906 2.59833581 0.76921554 3.89779663 1.15283203 C7.42354706 2.19568761 10.94647793 3.24778306 14.46895218 4.30164337 C18.18731273 5.41251023 21.90805635 6.51533334 25.62866211 7.61865234 C30.364454 9.02345216 35.100017 10.42900207 39.83454895 11.83804321 C51.21377871 15.22361398 62.60249195 18.57584628 73.99670219 21.91063309 C79.38419225 23.48780948 84.7708271 25.06790507 90.15755558 26.64768028 C94.53859865 27.93227231 98.92009591 29.21527224 103.30258179 30.49493408 C107.44011018 31.7032655 111.57616319 32.91652267 115.7111702 34.13345337 C117.23893763 34.58211487 118.7672377 35.02896704 120.29609299 35.47390747 C122.38769948 36.08286452 124.47735723 36.69810219 126.56665039 37.31494141 C127.74054825 37.65876862 128.91444611 38.00259583 130.12391663 38.35684204 C132.98828125 39.3359375 132.98828125 39.3359375 135.98828125 41.3359375 C126.54236092 46.18520504 116.98020903 50.6435177 107.25689697 54.90426636 C97.18474235 59.31816748 87.12823504 63.75772375 77.18359375 68.453125 C76.49392517 68.77838669 75.80425659 69.10364838 75.09368896 69.43876648 C71.84202326 70.9751982 68.59576938 72.52202575 65.35546875 74.08227539 C64.205625 74.62875732 63.05578125 75.17523926 61.87109375 75.73828125 C60.87480957 76.21773193 59.87852539 76.69718262 58.85205078 77.19116211 C55.84964351 78.39135714 53.20573485 79.03715783 49.98828125 79.3359375 C47.55859375 78.0703125 47.55859375 78.0703125 45.11328125 76.0859375 C44.15164062 75.33828125 43.19 74.590625 42.19921875 73.8203125 C41.68069336 73.41361328 41.16216797 73.00691406 40.62792969 72.58789062 C37.74569031 70.38715752 34.7379361 68.37202558 31.73828125 66.3359375 C25.02519092 61.74736682 18.34632495 57.11110798 11.67578125 52.4609375 C4.63429254 47.55469905 -2.4216253 42.67167495 -9.51171875 37.8359375 C-16.84932405 32.83021841 -24.15618389 27.78137663 -31.44921875 22.7109375 C-32.43921875 22.02322266 -33.42921875 21.33550781 -34.44921875 20.62695312 C-35.37605469 19.98177734 -36.30289063 19.33660156 -37.2578125 18.671875 C-38.49035767 17.81408447 -38.49035767 17.81408447 -39.74780273 16.93896484 C-41.86461279 15.44009988 -43.9452227 13.90321551 -46.01171875 12.3359375 C-44.24039337 7.02196135 -38.61525618 4.92846615 -34.01171875 2.0859375 C-32.99464844 1.42335938 -31.97757813 0.76078125 -30.9296875 0.078125 C-29.92550781 -0.54320313 -28.92132813 -1.16453125 -27.88671875 -1.8046875 C-26.97664063 -2.37735352 -26.0665625 -2.95001953 -25.12890625 -3.54003906 C-17.01673889 -6.46519715 -7.8703873 -2.36961039 0 0 Z " fill="#000000" transform="translate(142.01171875,100.6640625)"/>
</svg>
